<svg width="41" height="47" viewBox="0 0 41 47" fill="none" xmlns="http://www.w3.org/2000/svg">
<path d="M14.8056 36.2105C14.1298 36.2105 13.4692 36.4096 12.9074 36.7826C12.3455 37.1557 11.9076 37.6858 11.649 38.3062C11.3904 38.9265 11.3227 39.609 11.4545 40.2675C11.5864 40.9261 11.9118 41.5309 12.3896 42.0057C12.8674 42.4805 13.4762 42.8038 14.139 42.9348C14.8018 43.0658 15.4887 42.9985 16.1131 42.7416C16.7374 42.4846 17.271 42.0495 17.6464 41.4913C18.0218 40.933 18.2222 40.2767 18.2222 39.6053C18.2222 38.7049 17.8623 37.8415 17.2215 37.2048C16.5808 36.5682 15.7117 36.2105 14.8056 36.2105ZM38.7222 29.4211H11.3889C10.7848 29.4211 10.2054 29.1826 9.77826 28.7582C9.35109 28.3338 9.11111 27.7581 9.11111 27.1579C9.11111 26.5577 9.35109 25.982 9.77826 25.5576C10.2054 25.1332 10.7848 24.8947 11.3889 24.8947H30.73C32.2138 24.89 33.6561 24.4076 34.8407 23.5198C36.0253 22.6321 36.8885 21.3868 37.3009 19.9706L40.9121 7.41162C41.009 7.07479 41.0259 6.72023 40.9614 6.37582C40.897 6.03142 40.7529 5.70659 40.5406 5.4269C40.3283 5.14721 40.0536 4.92029 39.7381 4.76402C39.4225 4.60774 39.0748 4.52637 38.7222 4.52632H10.7945C10.323 3.20771 9.45379 2.06561 8.30529 1.25563C7.15679 0.445656 5.78489 0.00719853 4.3765 0H2.27778C1.67367 0 1.09431 0.238439 0.667146 0.662863C0.239979 1.08729 0 1.66293 0 2.26316C0 2.86338 0.239979 3.43903 0.667146 3.86345C1.09431 4.28788 1.67367 4.52632 2.27778 4.52632H4.3765C4.87097 4.52803 5.35157 4.68884 5.74635 4.98467C6.14112 5.2805 6.42884 5.69543 6.5664 6.16733L6.92064 7.40016L6.92119 7.41162L10.6582 20.4071C8.91923 20.593 7.31821 21.4342 6.18477 22.7577C5.05133 24.0811 4.47177 25.786 4.56541 27.5213C4.65905 29.2565 5.41878 30.8901 6.68815 32.0855C7.95753 33.281 9.63991 33.9473 11.3889 33.9474H38.7222C39.3263 33.9474 39.9057 33.7089 40.3329 33.2845C40.76 32.8601 41 32.2844 41 31.6842C41 31.084 40.76 30.5083 40.3329 30.0839C39.9057 29.6595 39.3263 29.4211 38.7222 29.4211ZM35.7026 9.05263L32.921 18.7263C32.7836 19.1986 32.4958 19.6139 32.1008 19.91C31.7057 20.206 31.2248 20.3669 30.73 20.3684H15.385L14.8043 18.3492L12.1324 9.05263H35.7026ZM33.0278 36.2105C32.352 36.2105 31.6914 36.4096 31.1296 36.7826C30.5677 37.1557 30.1298 37.6858 29.8712 38.3062C29.6126 38.9265 29.5449 39.609 29.6768 40.2675C29.8086 40.9261 30.134 41.5309 30.6118 42.0057C31.0897 42.4805 31.6985 42.8038 32.3612 42.9348C33.024 43.0658 33.711 42.9985 34.3353 42.7416C34.9596 42.4846 35.4932 42.0495 35.8686 41.4913C36.2441 40.933 36.4444 40.2767 36.4444 39.6053C36.4444 38.7049 36.0845 37.8415 35.4437 37.2048C34.803 36.5682 33.9339 36.2105 33.0278 36.2105Z" fill="#222222"/>
<circle cx="15" cy="41" r="6" fill="#222222"/>
<circle cx="33" cy="41" r="6" fill="#222222"/>
<rect x="30" y="37" width="6" height="9" rx="3" fill="#FDFDFD"/>
<rect x="12" y="37" width="6" height="9" rx="3" fill="#FDFDFD"/>
<rect x="31" y="40" width="5" height="6" rx="2.5" fill="#222222"/>
<rect x="13" y="40" width="5" height="6" rx="2.5" fill="#222222"/>
</svg>
