<svg width="241" height="241" viewBox="0 0 241 241" fill="none" xmlns="http://www.w3.org/2000/svg">
<path d="M85.3542 190.792C82.3751 190.792 79.4629 191.675 76.9859 193.33C74.5089 194.985 72.5783 197.338 71.4382 200.09C70.2982 202.842 69.9999 205.871 70.5811 208.793C71.1623 211.715 72.5969 214.398 74.7034 216.505C76.8099 218.611 79.4938 220.046 82.4156 220.627C85.3375 221.208 88.366 220.91 91.1183 219.77C93.8707 218.63 96.2231 216.699 97.8782 214.222C99.5333 211.745 100.417 208.833 100.417 205.854C100.417 201.859 98.8297 198.028 96.005 195.203C93.1802 192.379 89.349 190.792 85.3542 190.792ZM190.792 160.667H70.2917C67.6285 160.667 65.0743 159.609 63.1912 157.726C61.308 155.842 60.25 153.288 60.25 150.625C60.25 147.962 61.308 145.408 63.1912 143.524C65.0743 141.641 67.6285 140.583 70.2917 140.583H155.558C162.099 140.562 168.457 138.422 173.68 134.483C178.902 130.544 182.708 125.019 184.526 118.735L200.446 63.0105C200.873 61.516 200.948 59.9427 200.663 58.4146C200.379 56.8865 199.744 55.4452 198.808 54.2042C197.872 52.9632 196.661 51.9564 195.27 51.263C193.879 50.5696 192.346 50.2086 190.792 50.2083H67.6715C65.5928 44.3576 61.7607 39.2901 56.6975 35.6963C51.6343 32.1024 45.5862 30.1569 39.3773 30.125H30.125C27.4618 30.125 24.9077 31.183 23.0245 33.0661C21.1413 34.9493 20.0833 37.5035 20.0833 40.1667C20.0833 42.8299 21.1413 45.384 23.0245 47.2672C24.9077 49.1504 27.4618 50.2083 30.125 50.2083H39.3773C41.5572 50.216 43.6759 50.9295 45.4163 52.2421C47.1567 53.5547 48.4251 55.3957 49.0316 57.4895L50.5932 62.9596L50.5957 63.0105L67.0703 120.672C59.4041 121.496 52.3459 125.229 47.3491 131.101C42.3523 136.973 39.7973 144.538 40.2101 152.237C40.623 159.937 43.9722 167.185 49.5683 172.489C55.1644 177.793 62.5813 180.75 70.2917 180.75H190.792C193.455 180.75 196.009 179.692 197.892 177.809C199.775 175.926 200.833 173.372 200.833 170.708C200.833 168.045 199.775 165.491 197.892 163.608C196.009 161.725 193.455 160.667 190.792 160.667ZM177.48 70.2917L165.217 113.214C164.611 115.309 163.342 117.152 161.601 118.466C159.859 119.779 157.739 120.493 155.558 120.5H87.9087L85.3487 111.541L73.5695 70.2917H177.48ZM165.688 190.792C162.708 190.792 159.796 191.675 157.319 193.33C154.842 194.985 152.912 197.338 151.772 200.09C150.632 202.842 150.333 205.871 150.914 208.793C151.496 211.715 152.93 214.398 155.037 216.505C157.143 218.611 159.827 220.046 162.749 220.627C165.671 221.208 168.699 220.91 171.452 219.77C174.204 218.63 176.556 216.699 178.212 214.222C179.867 211.745 180.75 208.833 180.75 205.854C180.75 201.859 179.163 198.028 176.338 195.203C173.514 192.379 169.682 190.792 165.688 190.792Z" fill="#222222"/>
<rect x="77" y="195" width="16" height="23" rx="8" fill="#FDFDFD"/>
<rect x="157" y="195" width="16" height="23" rx="8" fill="#FDFDFD"/>
<rect x="161" y="202" width="12" height="16" rx="6" fill="#222222"/>
<rect x="81" y="202" width="12" height="16" rx="6" fill="#222222"/>
</svg>
